<svg xmlns="http://www.w3.org/2000/svg" width="240" height="240" viewBox="0 0 240 240" version="1.1"><path d="M 29.446 101.500 C 29.447 119.100, 29.583 126.159, 29.749 117.187 C 29.914 108.215, 29.914 93.815, 29.748 85.187 C 29.581 76.559, 29.446 83.900, 29.446 101.500 M 34.807 82.503 C 35.103 94.532, 35.189 94.969, 37.057 93.969 C 39.348 92.743, 39.659 91.810, 37.500 92.638 C 36.220 93.130, 36 91.513, 36 81.607 C 36 75.223, 35.663 69.999, 35.250 69.998 C 34.837 69.997, 34.638 75.624, 34.807 82.503 M 95 73 C 95 73.550, 96.303 74, 97.895 74 C 106.150 74, 119.832 80.628, 125.942 87.586 L 128.983 91.050 124.491 95.354 C 122.021 97.721, 120.002 100.297, 120.004 101.079 C 120.006 101.860, 120.861 101.100, 121.905 99.389 C 123.894 96.126, 128.970 92, 130.995 92 C 133.769 92, 120.290 79.765, 114.522 77.047 C 106.189 73.122, 95 70.802, 95 73 M 48.750 89.662 C 49.438 89.940, 50.563 89.940, 51.250 89.662 C 51.938 89.385, 51.375 89.158, 50 89.158 C 48.625 89.158, 48.063 89.385, 48.750 89.662 M 41 91.046 C 39.905 91.787, 40.309 91.880, 42.500 91.390 C 46.177 90.567, 46.975 89.995, 44.417 90.015 C 43.362 90.024, 41.825 90.487, 41 91.046 M 54.750 90.662 C 55.438 90.940, 56.563 90.940, 57.250 90.662 C 57.938 90.385, 57.375 90.158, 56 90.158 C 54.625 90.158, 54.063 90.385, 54.750 90.662 M 88.750 90.662 C 89.438 90.940, 90.563 90.940, 91.250 90.662 C 91.938 90.385, 91.375 90.158, 90 90.158 C 88.625 90.158, 88.063 90.385, 88.750 90.662 M 96.083 90.361 C 96.313 90.559, 98.525 90.989, 101 91.317 C 104.005 91.714, 104.835 91.617, 103.500 91.026 C 101.590 90.180, 95.215 89.609, 96.083 90.361 M 134.269 90.693 C 135.242 90.947, 136.592 90.930, 137.269 90.656 C 137.946 90.382, 137.150 90.175, 135.500 90.195 C 133.850 90.215, 133.296 90.439, 134.269 90.693 M 145.269 90.693 C 146.242 90.947, 147.592 90.930, 148.269 90.656 C 148.946 90.382, 148.150 90.175, 146.500 90.195 C 144.850 90.215, 144.296 90.439, 145.269 90.693 M 181.768 90.725 C 183.565 90.947, 186.265 90.943, 187.768 90.715 C 189.271 90.486, 187.800 90.304, 184.500 90.310 C 181.200 90.315, 179.971 90.502, 181.768 90.725 M 61.500 92.662 C 63.150 93.531, 65.622 95.201, 66.993 96.372 L 69.486 98.500 67.495 96.148 C 65.557 93.857, 60.908 90.960, 59.300 91.040 C 58.860 91.062, 59.850 91.792, 61.500 92.662 M 151.500 92.164 C 152.600 92.771, 154.729 94.409, 156.232 95.803 C 158.319 97.741, 158.703 98.653, 157.859 99.670 C 156.308 101.539, 154.605 101.326, 152.500 99 C 151.505 97.900, 150.275 97, 149.768 97 C 149.261 97, 150.184 98.125, 151.818 99.500 C 155.373 102.491, 156.174 102.570, 158.372 100.141 C 159.969 98.377, 159.850 98.097, 156.024 94.641 C 153.808 92.638, 151.433 91.014, 150.747 91.030 C 150.061 91.047, 150.400 91.557, 151.500 92.164 M 175.813 91.683 C 176.534 91.972, 177.397 91.936, 177.729 91.604 C 178.061 91.272, 177.471 91.036, 176.417 91.079 C 175.252 91.127, 175.015 91.364, 175.813 91.683 M 77.882 95.882 C 75.436 98.329, 74.032 100.640, 74.086 102.132 C 74.165 104.320, 74.236 104.286, 75.017 101.686 C 76.084 98.129, 77.715 96.156, 81.500 93.842 C 83.150 92.833, 83.885 92.006, 83.132 92.004 C 82.380 92.002, 80.018 93.747, 77.882 95.882 M 168.305 95.359 L 164.640 98.718 167.385 100.516 C 170.080 102.282, 170.169 102.272, 172.315 99.945 L 174.500 97.574 172.333 99.367 C 170.574 100.823, 169.763 100.943, 168.019 100.010 C 166.193 99.033, 166.068 98.622, 167.185 97.268 C 167.908 96.392, 169.850 94.850, 171.500 93.842 C 173.150 92.833, 173.931 92.006, 173.235 92.004 C 172.540 92.002, 170.321 93.512, 168.305 95.359 M 198.102 94.270 C 199.971 95.518, 202.287 98.106, 203.248 100.020 C 204.381 102.275, 204.997 102.843, 204.998 101.632 C 205 99.540, 197.933 92, 195.970 92 C 195.274 92, 196.233 93.021, 198.102 94.270 M 48.250 95.689 C 49.212 95.941, 50.788 95.941, 51.750 95.689 C 52.712 95.438, 51.925 95.232, 50 95.232 C 48.075 95.232, 47.288 95.438, 48.250 95.689 M 111.899 96.500 C 113.585 99.762, 114.970 101.570, 114.962 100.500 C 114.959 99.950, 114.035 98.375, 112.911 97 C 111.552 95.339, 111.213 95.172, 111.899 96.500 M 139.750 95.662 C 140.438 95.940, 141.563 95.940, 142.250 95.662 C 142.938 95.385, 142.375 95.158, 141 95.158 C 139.625 95.158, 139.063 95.385, 139.750 95.662 M 183.750 95.662 C 184.438 95.940, 185.563 95.940, 186.250 95.662 C 186.938 95.385, 186.375 95.158, 185 95.158 C 183.625 95.158, 183.063 95.385, 183.750 95.662 M 57.931 97.567 C 59.818 98.386, 61.956 99.548, 62.681 100.150 C 63.407 100.752, 64 100.958, 64 100.608 C 64 99.613, 57.674 96.003, 56 96.043 C 55.175 96.062, 56.044 96.748, 57.931 97.567 M 88.813 96.683 C 89.534 96.972, 90.397 96.936, 90.729 96.604 C 91.061 96.272, 90.471 96.036, 89.417 96.079 C 88.252 96.127, 88.015 96.364, 88.813 96.683 M 98.083 96.359 C 98.313 96.557, 99.850 97.021, 101.500 97.390 C 103.691 97.880, 104.095 97.787, 103 97.046 C 101.650 96.132, 97.080 95.494, 98.083 96.359 M 131.378 97.437 C 127.543 99.106, 124.966 102.611, 125.102 105.973 C 125.186 108.043, 125.353 107.871, 126.022 105.024 C 126.779 101.808, 130.064 98, 132.083 98 C 132.557 98, 133.592 100.362, 134.385 103.250 C 136.896 112.400, 137.068 113.805, 135.748 114.338 C 135.062 114.615, 135.850 114.842, 137.500 114.842 C 139.150 114.842, 139.938 114.615, 139.250 114.338 C 138.563 114.060, 138 112.786, 138 111.506 C 138 110.226, 137.154 106.461, 136.120 103.139 C 134.405 97.627, 134.383 97.062, 135.870 96.666 C 137.147 96.326, 137.175 96.215, 136 96.155 C 135.175 96.113, 133.095 96.690, 131.378 97.437 M 145.813 96.683 C 146.534 96.972, 147.397 96.936, 147.729 96.604 C 148.061 96.272, 147.471 96.036, 146.417 96.079 C 145.252 96.127, 145.015 96.364, 145.813 96.683 M 176 97 C 174.172 98.181, 175.751 98.181, 178.500 97 C 179.819 96.433, 179.989 96.122, 179 96.086 C 178.175 96.055, 176.825 96.467, 176 97 M 190.500 97 C 193.249 98.181, 194.828 98.181, 193 97 C 192.175 96.467, 190.825 96.055, 190 96.086 C 189.011 96.122, 189.181 96.433, 190.500 97 M 37.861 98.909 C 35.600 100.737, 35.479 101.496, 35 116.910 C 34.725 125.762, 34.837 133.003, 35.250 133.002 C 35.663 133.001, 36 126.111, 36 117.691 C 36 101.811, 36.315 100.444, 40.500 98.155 C 41.600 97.553, 41.987 97.047, 41.361 97.030 C 40.734 97.014, 39.159 97.859, 37.861 98.909 M 82.635 99.073 C 81.186 100.212, 80.036 101.675, 80.079 102.323 C 80.129 103.071, 80.352 103.015, 80.690 102.168 C 80.982 101.435, 82.634 99.975, 84.361 98.922 C 86.087 97.869, 86.998 97.006, 86.385 97.004 C 85.772 97.002, 84.084 97.933, 82.635 99.073 M 106.500 100 C 107.495 101.100, 108.535 102, 108.810 102 C 109.085 102, 108.495 101.100, 107.500 100 C 106.505 98.900, 105.465 98, 105.190 98 C 104.915 98, 105.505 98.900, 106.500 100 M 196.980 100.284 C 197.794 101.319, 198.743 104.491, 199.089 107.333 L 199.718 112.500 199.859 107.806 C 199.968 104.178, 199.489 102.577, 197.750 100.757 C 196.512 99.462, 196.166 99.249, 196.980 100.284 M 70.212 121.424 L 70 142.349 67.250 139.928 C 64.714 137.696, 64.734 137.766, 67.500 140.823 L 70.500 144.138 70.783 133.014 C 70.939 126.895, 70.922 117.077, 70.746 111.195 C 70.569 105.313, 70.329 109.916, 70.212 121.424 M 115.405 117.500 C 115.406 126.300, 115.559 129.766, 115.745 125.203 C 115.930 120.639, 115.929 113.439, 115.742 109.203 C 115.555 104.966, 115.404 108.700, 115.405 117.500 M 108.993 114.750 L 108.985 126.500 102.257 115.245 C 98.557 109.055, 95.158 104.114, 94.704 104.265 C 93.191 104.770, 81.168 126.487, 81.948 127.308 C 82.370 127.752, 88.630 127.977, 95.859 127.808 L 109.004 127.500 109.002 130.027 C 109.001 131.418, 108.289 133.668, 107.420 135.027 L 105.840 137.500 107.920 135.139 C 109.828 132.974, 110 131.546, 110 117.889 C 110 109.700, 109.775 103, 109.500 103 C 109.225 103, 108.997 108.287, 108.993 114.750 M 119.232 106 C 119.232 107.925, 119.438 108.713, 119.689 107.750 C 119.941 106.787, 119.941 105.213, 119.689 104.250 C 119.438 103.287, 119.232 104.075, 119.232 106 M 128.757 111.750 C 130.052 112.987, 131.874 113.971, 132.806 113.937 C 133.932 113.894, 133.669 113.542, 132.021 112.884 C 130.657 112.340, 128.835 111.356, 127.972 110.697 C 127.108 110.039, 127.462 110.513, 128.757 111.750 M 184.280 111.736 C 186.909 111.943, 190.959 111.940, 193.280 111.731 C 195.601 111.521, 193.450 111.352, 188.500 111.355 C 183.550 111.358, 181.651 111.530, 184.280 111.736 M 175 113 C 173.172 114.181, 174.751 114.181, 177.500 113 C 178.819 112.433, 178.989 112.122, 178 112.086 C 177.175 112.055, 175.825 112.467, 175 113 M 124.218 116.250 C 125.765 117.763, 127.587 118.986, 128.266 118.970 C 128.945 118.953, 128.600 118.441, 127.500 117.833 C 126.400 117.225, 124.578 116.001, 123.452 115.113 C 122.325 114.226, 122.670 114.737, 124.218 116.250 M 52.012 117.750 C 52.041 126.925, 57.596 139.742, 64.411 146.356 C 71.360 153.101, 83.568 158.106, 92.500 157.871 C 96.064 157.778, 95.791 157.625, 90 156.466 C 77.923 154.048, 72.023 151.198, 65.412 144.588 C 58.420 137.595, 55.109 130.373, 54.254 120.250 C 53.684 113.496, 51.992 111.611, 52.012 117.750 M 169.218 116.750 C 166.826 119.087, 166.786 119.202, 168.952 117.515 C 173.220 114.190, 173.423 114, 172.716 114 C 172.339 114, 170.765 115.237, 169.218 116.750 M 142.250 115.689 C 143.213 115.941, 144.787 115.941, 145.750 115.689 C 146.713 115.438, 145.925 115.232, 144 115.232 C 142.075 115.232, 141.287 115.438, 142.250 115.689 M 148.813 116.683 C 149.534 116.972, 150.397 116.936, 150.729 116.604 C 151.061 116.272, 150.471 116.036, 149.417 116.079 C 148.252 116.127, 148.015 116.364, 148.813 116.683 M 184.728 116.722 C 186.503 116.943, 189.653 116.946, 191.728 116.730 C 193.802 116.513, 192.350 116.333, 188.500 116.328 C 184.650 116.324, 182.952 116.501, 184.728 116.722 M 175.299 118.960 C 171.546 121.248, 168.953 125.752, 169.115 129.700 C 169.219 132.236, 169.296 132.170, 169.930 129 C 171.042 123.440, 172.861 120.966, 177.331 118.937 C 179.624 117.896, 180.825 117.036, 180 117.026 C 179.175 117.016, 177.059 117.886, 175.299 118.960 M 197.702 117.703 C 198.388 118.192, 199.063 121.763, 199.276 126.029 L 199.649 133.500 199.575 125.580 C 199.517 119.432, 199.164 117.570, 198 117.254 C 196.940 116.967, 196.853 117.099, 197.702 117.703 M 156.250 120.313 C 157.762 121.738, 159 123.451, 159 124.119 C 159 124.787, 159.261 125.072, 159.581 124.752 C 160.532 123.802, 158.123 120.134, 155.727 118.884 C 153.883 117.921, 153.973 118.167, 156.250 120.313 M 130.813 119.683 C 131.534 119.972, 132.397 119.936, 132.729 119.604 C 133.061 119.272, 132.471 119.036, 131.417 119.079 C 130.252 119.127, 130.015 119.364, 130.813 119.683 M 135.250 120.689 C 136.213 120.941, 137.787 120.941, 138.750 120.689 C 139.713 120.438, 138.925 120.232, 137 120.232 C 135.075 120.232, 134.287 120.438, 135.250 120.689 M 142.269 121.693 C 143.242 121.947, 144.592 121.930, 145.269 121.656 C 145.946 121.382, 145.150 121.175, 143.500 121.195 C 141.850 121.215, 141.296 121.439, 142.269 121.693 M 148.946 123.104 C 150.292 123.641, 151.888 124.400, 152.493 124.790 C 153.099 125.181, 152.736 124.713, 151.686 123.750 C 150.637 122.787, 149.041 122.029, 148.139 122.063 C 147.103 122.103, 147.400 122.486, 148.946 123.104 M 205.439 130.500 C 205.494 137.759, 205.704 138.590, 207.705 139.468 C 208.920 140.001, 210.087 141.571, 210.305 142.968 C 210.692 145.444, 210.704 145.438, 210.850 142.725 C 210.964 140.625, 210.403 139.723, 208.541 139.016 C 206.267 138.151, 206.056 137.495, 205.731 130.290 L 205.379 122.500 205.439 130.500 M 160.272 130 C 160.272 132.475, 160.467 133.488, 160.706 132.250 C 160.944 131.012, 160.944 128.988, 160.706 127.750 C 160.467 126.513, 160.272 127.525, 160.272 130 M 163.232 129 C 163.232 130.925, 163.438 131.713, 163.689 130.750 C 163.941 129.787, 163.941 128.213, 163.689 127.250 C 163.438 126.287, 163.232 127.075, 163.232 129 M 154.232 130 C 154.232 131.925, 154.438 132.713, 154.689 131.750 C 154.941 130.787, 154.941 129.213, 154.689 128.250 C 154.438 127.287, 154.232 128.075, 154.232 130 M 120 133.141 L 117.500 135.237 120.268 133.584 C 122.961 131.975, 123.106 132.006, 125.591 134.715 L 128.146 137.500 125.885 134.250 C 124.641 132.463, 123.371 131.010, 123.062 131.022 C 122.753 131.034, 121.375 131.988, 120 133.141 M 74.079 133.583 C 74.127 134.748, 74.364 134.985, 74.683 134.188 C 74.972 133.466, 74.936 132.603, 74.604 132.271 C 74.272 131.939, 74.036 132.529, 74.079 133.583 M 80 132.659 C 80 133.205, 81.237 134.742, 82.750 136.076 L 85.500 138.500 83 135.500 C 81.625 133.850, 80.388 132.313, 80.250 132.083 C 80.112 131.854, 80 132.113, 80 132.659 M 164.039 134.382 C 163.994 136.549, 172.053 145.015, 174.118 144.970 C 174.943 144.951, 174.694 144.493, 173.500 143.833 C 169.990 141.892, 166.785 138.589, 165.412 135.500 C 164.477 133.397, 164.067 133.063, 164.039 134.382 M 151.139 136.033 C 149.841 137.115, 149.209 138, 149.734 138 C 150.260 138, 151.505 137.100, 152.500 136 C 154.787 133.473, 154.195 133.487, 151.139 136.033 M 195.694 136.532 C 194.151 137.889, 193.279 139, 193.756 139 C 194.669 139, 199 135.252, 199 134.461 C 199 133.714, 198.644 133.937, 195.694 136.532 M 173.757 137.750 C 175.052 138.988, 176.874 139.971, 177.806 139.937 C 178.932 139.894, 178.669 139.542, 177.021 138.884 C 175.657 138.340, 173.835 137.356, 172.972 136.697 C 172.108 136.039, 172.462 136.512, 173.757 137.750 M 75.920 137.661 C 76.933 139.737, 82.792 144.004, 84.618 143.996 C 85.103 143.994, 83.925 143.052, 82 141.903 C 80.075 140.753, 77.682 138.842, 76.683 137.656 L 74.866 135.500 75.920 137.661 M 119.970 137.944 C 120.543 139.014, 121.505 140.194, 122.109 140.567 C 122.713 140.941, 122.434 140.066, 121.489 138.623 C 119.487 135.568, 118.451 135.105, 119.970 137.944 M 102.500 138 C 100.870 138.701, 100.812 138.872, 102.191 138.930 C 103.121 138.968, 104.160 138.550, 104.500 138 C 105.211 136.850, 105.176 136.850, 102.500 138 M 110.924 139.750 L 108.500 142.500 111.250 140.076 C 112.763 138.742, 114 137.505, 114 137.326 C 114 136.541, 113.190 137.180, 110.924 139.750 M 156.872 138.662 C 156.118 139.576, 154.150 141.150, 152.500 142.158 C 150.850 143.167, 150.069 143.994, 150.765 143.996 C 152.021 144, 160.073 137.079, 158.872 137.027 C 158.527 137.012, 157.627 137.748, 156.872 138.662 M 91.768 139.725 C 93.565 139.947, 96.265 139.943, 97.768 139.715 C 99.271 139.486, 97.800 139.304, 94.500 139.310 C 91.200 139.315, 89.971 139.502, 91.768 139.725 M 136.768 139.725 C 138.565 139.947, 141.265 139.943, 142.768 139.715 C 144.271 139.486, 142.800 139.304, 139.500 139.310 C 136.200 139.315, 134.971 139.502, 136.768 139.725 M 189.813 139.683 C 190.534 139.972, 191.397 139.936, 191.729 139.604 C 192.061 139.272, 191.471 139.036, 190.417 139.079 C 189.252 139.127, 189.015 139.364, 189.813 139.683 M 182.762 140.707 C 184.006 140.946, 185.806 140.937, 186.762 140.687 C 187.718 140.437, 186.700 140.241, 184.500 140.252 C 182.300 140.263, 181.518 140.468, 182.762 140.707 M 125.441 142.445 C 126.509 143.300, 127.821 144, 128.358 144 C 129.628 144, 129.061 143.538, 126 142.080 C 123.643 140.958, 123.611 140.978, 125.441 142.445 M 196.500 143 C 194.850 144.093, 193.853 144.990, 194.285 144.993 C 194.717 144.997, 196.160 144.286, 197.492 143.413 C 199.704 141.964, 200.111 141.964, 202.179 143.413 C 203.426 144.286, 205.115 145, 205.934 145 C 206.753 145, 205.658 144.100, 203.500 143 C 201.342 141.900, 199.560 141.003, 199.539 141.007 C 199.517 141.010, 198.150 141.907, 196.500 143 M 86.813 144.683 C 87.534 144.972, 88.397 144.936, 88.729 144.604 C 89.061 144.272, 88.471 144.036, 87.417 144.079 C 86.252 144.127, 86.015 144.364, 86.813 144.683 M 101.813 144.683 C 102.534 144.972, 103.397 144.936, 103.729 144.604 C 104.061 144.272, 103.471 144.036, 102.417 144.079 C 101.252 144.127, 101.015 144.364, 101.813 144.683 M 146.813 144.683 C 147.534 144.972, 148.397 144.936, 148.729 144.604 C 149.061 144.272, 148.471 144.036, 147.417 144.079 C 146.252 144.127, 146.015 144.364, 146.813 144.683 M 92.250 145.716 C 93.763 145.945, 96.237 145.945, 97.750 145.716 C 99.263 145.487, 98.025 145.300, 95 145.300 C 91.975 145.300, 90.737 145.487, 92.250 145.716 M 135.750 145.723 C 137.537 145.945, 140.463 145.945, 142.250 145.723 C 144.037 145.502, 142.575 145.320, 139 145.320 C 135.425 145.320, 133.963 145.502, 135.750 145.723 M 176.813 145.683 C 177.534 145.972, 178.397 145.936, 178.729 145.604 C 179.061 145.272, 178.471 145.036, 177.417 145.079 C 176.252 145.127, 176.015 145.364, 176.813 145.683 M 190.813 145.683 C 191.534 145.972, 192.397 145.936, 192.729 145.604 C 193.061 145.272, 192.471 145.036, 191.417 145.079 C 190.252 145.127, 190.015 145.364, 190.813 145.683 M 183.250 146.689 C 184.213 146.941, 185.787 146.941, 186.750 146.689 C 187.713 146.438, 186.925 146.232, 185 146.232 C 183.075 146.232, 182.287 146.438, 183.250 146.689 M 100.200 150.200 C 98.587 151.813, 98.587 167.187, 100.200 168.800 C 100.860 169.460, 102.795 170, 104.500 170 C 106.205 170, 108.140 169.460, 108.800 168.800 C 109.733 167.867, 110 167.867, 110 168.800 C 110 169.460, 110.900 170, 112 170 C 113.660 170, 114 169.333, 114 166.083 C 114 163.929, 114.461 161.938, 115.025 161.658 C 115.589 161.379, 115.476 161.264, 114.775 161.402 C 114.074 161.541, 113.360 163.307, 113.190 165.327 C 113.019 167.347, 112.440 169, 111.902 169 C 111.316 169, 111.040 165.302, 111.212 159.750 L 111.500 150.500 115.500 150.500 L 119.500 150.500 119.788 159.750 C 119.961 165.337, 119.686 169, 119.092 169 C 118.552 169, 117.941 166.863, 117.735 164.250 L 117.360 159.500 117.180 164.750 C 117.021 169.393, 117.231 170, 119 170 C 120.857 170, 121 169.333, 121 160.700 C 121 150.411, 120.336 149, 115.500 149 C 113.795 149, 111.860 149.540, 111.200 150.200 C 110.267 151.133, 109.733 151.133, 108.800 150.200 C 108.140 149.540, 106.902 149.029, 106.050 149.063 C 105.099 149.102, 105.370 149.476, 106.750 150.031 C 107.987 150.529, 109 151.400, 109 151.968 C 109 153.329, 107.681 153.281, 106.267 151.867 C 105.644 151.244, 104.429 151.005, 103.567 151.336 C 101.327 152.196, 101.278 166.786, 103.513 167.643 C 104.345 167.963, 105.706 167.659, 106.537 166.969 C 108.292 165.513, 109.882 166.518, 108.310 168.090 C 107.730 168.670, 105.735 169, 103.877 168.823 L 100.500 168.500 100.211 159.732 C 99.936 151.401, 100.036 150.919, 102.211 150.046 C 103.589 149.492, 103.883 149.102, 102.950 149.063 C 102.098 149.029, 100.860 149.540, 100.200 150.200 M 123.200 150.200 C 122.439 150.961, 122 154.800, 122 160.700 C 122 168.300, 122.274 170, 123.500 170 C 124.663 170, 124.965 168.820, 124.843 164.750 L 124.686 159.500 124 164.500 C 123.413 168.778, 123.292 168.159, 123.157 160.218 C 123.009 151.455, 123.126 150.885, 125.250 150.031 C 126.630 149.476, 126.901 149.102, 125.950 149.063 C 125.098 149.029, 123.860 149.540, 123.200 150.200 M 129 149.668 C 129.825 150.015, 130.872 150.795, 131.326 151.400 C 131.857 152.107, 132.006 151.965, 131.743 151 C 131.518 150.175, 130.472 149.395, 129.417 149.268 C 128.070 149.104, 127.946 149.223, 129 149.668 M 134.459 150.067 C 134.096 150.653, 134.070 151.403, 134.400 151.733 C 134.730 152.063, 135 151.841, 135 151.240 C 135 150.639, 135.787 149.941, 136.750 149.689 C 138.328 149.277, 138.334 149.221, 136.809 149.116 C 135.879 149.052, 134.821 149.480, 134.459 150.067 M 141.250 150.080 C 142.708 150.930, 143 152.577, 143 159.966 C 143 166.124, 142.618 168.987, 141.750 169.338 C 141.003 169.639, 141.205 169.874, 142.250 169.921 C 143.797 169.991, 144 168.921, 144 160.700 C 144 151.711, 143.185 148.954, 140.550 149.030 C 139.972 149.047, 140.287 149.519, 141.250 150.080 M 145 159.500 L 145 170 149.300 170 C 151.665 170, 154.140 169.460, 154.800 168.800 C 155.536 168.064, 156 164.467, 156 159.500 C 156 154.533, 155.536 150.936, 154.800 150.200 C 154.140 149.540, 151.665 149, 149.300 149 L 145 149 145 159.500 M 158.200 150.200 C 157.439 150.961, 157 154.800, 157 160.700 C 157 168.300, 157.274 170, 158.500 170 C 159.590 170, 159.964 168.975, 159.868 166.250 L 159.737 162.500 159 166 C 158.463 168.549, 158.228 167.001, 158.132 160.300 C 158.020 152.505, 158.267 150.944, 159.750 150.080 C 160.713 149.519, 161.028 149.047, 160.450 149.030 C 159.873 149.014, 158.860 149.540, 158.200 150.200 M 164 149.668 C 164.825 150.015, 165.872 150.795, 166.326 151.400 C 166.857 152.107, 167.006 151.965, 166.743 151 C 166.518 150.175, 165.472 149.395, 164.417 149.268 C 163.070 149.104, 162.946 149.223, 164 149.668 M 146 159.500 L 146 169.115 150.250 168.807 L 154.500 168.500 154.500 159.500 L 154.500 150.500 150.250 150.193 L 146 149.885 146 159.500 M 113.427 152.331 C 113.114 153.144, 113.044 155.315, 113.270 157.155 C 113.640 160.172, 113.696 160.083, 113.840 156.250 C 113.954 153.210, 114.427 152, 115.500 152 C 117.228 152, 117.641 157.515, 115.975 158.342 C 115.411 158.621, 115.524 158.734, 116.225 158.592 C 118.280 158.175, 117.855 151.596, 115.747 151.190 C 114.783 151.004, 113.739 151.518, 113.427 152.331 M 126.750 151.656 C 128.879 152.113, 129 152.618, 129 161.070 C 129 168.914, 129.213 169.998, 130.750 169.985 C 131.946 169.974, 132.118 169.727, 131.294 169.203 C 130.550 168.730, 129.975 165.191, 129.794 159.968 C 129.508 151.731, 129.432 151.496, 127 151.336 C 124.797 151.192, 124.767 151.230, 126.750 151.656 M 136.667 151.667 C 135.714 152.620, 135.840 160, 136.809 160 C 137.254 160, 138.491 159.300, 139.559 158.445 C 141.423 156.951, 141.411 156.933, 139.250 157.980 C 137.128 159.008, 137 158.862, 137 155.419 C 137 152.259, 137.270 151.837, 139 152.290 C 140.100 152.577, 141 152.405, 141 151.906 C 141 150.860, 137.658 150.675, 136.667 151.667 M 148 159.500 C 148 167.887, 148.066 168.130, 150.250 167.820 C 152.369 167.519, 152.500 167.035, 152.500 159.500 C 152.500 151.965, 152.369 151.481, 150.250 151.180 C 148.066 150.870, 148 151.113, 148 159.500 M 161.750 151.656 C 164.779 152.307, 164.976 157.512, 162 158.290 C 160.331 158.726, 159.975 158.290, 159.850 155.656 L 159.700 152.500 159.272 155.372 C 158.737 158.957, 159.831 160.048, 162.814 158.904 C 164.687 158.186, 165.068 157.396, 164.814 154.759 C 164.557 152.087, 164.049 151.470, 162 151.336 C 159.797 151.192, 159.767 151.230, 161.750 151.656 M 103 159.500 C 103 165.363, 103.314 167, 104.441 167 C 105.234 167, 106.179 166.519, 106.542 165.932 C 106.905 165.344, 107.832 165.105, 108.601 165.400 C 109.700 165.822, 109.998 164.709, 109.992 160.219 C 109.985 154.990, 109.754 154.393, 107.293 153.250 C 105.812 152.563, 104.241 152, 103.801 152 C 103.360 152, 103 155.375, 103 159.500 M 149 159.500 C 149 165.500, 149.300 167, 150.500 167 C 151.700 167, 152 165.500, 152 159.500 C 152 153.500, 151.700 152, 150.500 152 C 149.300 152, 149 153.500, 149 159.500 M 138.250 161.031 C 136.526 161.724, 136 162.742, 136 165.384 C 136 167.281, 135.438 169.060, 134.750 169.338 C 134.003 169.639, 134.205 169.874, 135.250 169.921 C 136.638 169.984, 137 169.173, 137 166 C 137 163.184, 137.427 162, 138.441 162 C 139.234 162, 140.160 161.550, 140.500 161 C 141.217 159.841, 141.212 159.841, 138.250 161.031 M 161.500 161.146 C 159.659 161.970, 159.678 162.007, 161.750 161.614 C 163.808 161.224, 164 161.564, 164 165.594 C 164 169.154, 164.336 169.985, 165.750 169.921 C 166.795 169.874, 166.997 169.639, 166.250 169.338 C 165.553 169.057, 165 167.126, 165 164.976 C 165 160.593, 164.342 159.873, 161.500 161.146" stroke="none" fill="#b99f9a" fill-rule="evenodd"/><path d="M 30 101.500 L 30 133.139 32.250 132.820 C 34.449 132.507, 34.511 132.143, 35 116.899 C 35.359 105.710, 35.890 100.829, 36.881 99.639 C 39.030 97.057, 48.374 94.720, 53.287 95.537 C 58.600 96.419, 62.644 98.466, 63.970 100.945 C 64.563 102.053, 65 110.244, 65 120.260 C 65 137.518, 65.019 137.669, 67.500 140 L 70 142.349 70 121.309 C 70 101.467, 69.881 100.118, 67.905 97.607 C 62.395 90.602, 47.988 88.141, 39.281 92.718 L 35.061 94.936 34.781 82.718 C 34.509 70.907, 34.425 70.489, 32.250 70.180 L 30 69.861 30 101.500 M 87.849 91.388 C 82.150 92.923, 78.584 95.179, 76.264 98.718 C 74.763 101.008, 74.500 103.813, 74.500 117.550 C 74.500 136.061, 75.006 137.747, 81.753 141.701 C 86.924 144.732, 96.408 145.789, 102.830 144.051 C 105.212 143.407, 108.812 141.367, 110.830 139.519 L 114.500 136.159 114.830 119.329 C 115.115 104.797, 114.922 102.053, 113.410 99.226 C 111.111 94.927, 106.848 92.420, 99.566 91.087 C 92.681 89.826, 93.751 89.798, 87.849 91.388 M 134.138 91.035 C 125.254 92.866, 119.392 99.913, 120.270 107.706 C 121.150 115.511, 125.136 118.163, 139.451 120.467 C 144.811 121.329, 150.043 122.488, 151.076 123.041 C 155.249 125.274, 156.218 131.182, 153.068 135.186 C 147.740 141.960, 129.739 141.176, 124.677 133.949 C 123.283 131.959, 122.869 131.850, 121.294 133.058 C 120.307 133.815, 119.352 134.522, 119.170 134.630 C 118.989 134.738, 119.645 136.055, 120.629 137.556 C 123.317 141.658, 131.307 144.980, 138.500 144.985 C 147.025 144.991, 151.883 143.353, 156.227 139.008 C 159.490 135.745, 160 134.618, 160 130.665 C 160 120.997, 156.234 117.896, 141.639 115.548 C 130.821 113.807, 128.850 113.052, 126.551 109.770 C 120.941 101.759, 132.910 93.286, 145.901 96.072 C 148.596 96.650, 151.591 97.995, 152.556 99.062 C 154.608 101.330, 156.319 101.526, 157.859 99.670 C 158.703 98.653, 158.319 97.738, 156.232 95.792 C 154.729 94.391, 152.600 92.785, 151.500 92.223 C 148.460 90.672, 139.033 90.026, 134.138 91.035 M 174.583 92.483 C 172.429 93.251, 169.560 94.985, 168.208 96.337 L 165.750 98.796 167.871 99.931 C 169.612 100.863, 170.513 100.681, 172.899 98.916 C 180.198 93.520, 193.914 94.756, 198.439 101.217 C 199.298 102.442, 200 105.370, 200 107.723 L 200 112 190.366 112 C 178.611 112, 173.771 113.347, 168.909 117.972 C 159.833 126.606, 164.332 141.579, 177.036 145.015 C 182.953 146.615, 192.107 145.715, 196.307 143.119 L 199.664 141.044 203.544 143.022 C 208.562 145.581, 210 145.517, 210 142.737 C 210 141.350, 209.130 140.092, 207.750 139.487 C 205.560 138.526, 205.487 138.006, 205 119.820 C 204.431 98.555, 204.026 97.361, 195.980 93.250 C 190.797 90.602, 180.863 90.246, 174.583 92.483 M 85.500 97.386 C 80.295 99.654, 80.075 100.446, 79.947 117.389 C 79.842 131.370, 80.036 133.386, 81.664 135.215 C 87.115 141.335, 100.853 141.743, 107.036 135.967 L 110 133.198 110 118.321 C 110 102.047, 109.510 100.349, 103.989 97.494 C 100.420 95.649, 89.631 95.585, 85.500 97.386 M 178.500 117.443 C 168.943 120.967, 166.214 130.368, 172.827 136.981 C 176.222 140.376, 183.240 141.629, 189.849 140.020 C 195.137 138.732, 197.173 137.440, 198.837 134.316 C 200.389 131.402, 200.368 118.346, 198.810 117.383 C 196.401 115.894, 182.589 115.935, 178.500 117.443 M 102.174 150.132 C 100.040 150.921, 99.937 151.424, 100.211 159.732 L 100.500 168.500 103.877 168.823 C 105.735 169, 107.730 168.670, 108.310 168.090 C 109.882 166.518, 108.292 165.513, 106.537 166.969 C 103.310 169.647, 102 167.490, 102 159.500 C 102 151.510, 103.310 149.353, 106.537 152.031 C 108.143 153.364, 109.597 152.774, 108.616 151.187 C 107.706 149.715, 104.652 149.215, 102.174 150.132 M 125.250 150.099 C 123.140 150.883, 123 151.509, 123 160.134 C 123 165.194, 123.199 169.135, 123.441 168.892 C 123.684 168.649, 124.101 164.862, 124.367 160.475 C 124.633 156.089, 124.884 152.131, 124.925 151.680 C 124.966 151.230, 126.013 151.005, 127.250 151.180 C 129.361 151.480, 129.518 152.039, 129.789 160.250 C 129.948 165.063, 130.510 169, 131.039 169 C 132.157 169, 132.334 153.033, 131.235 151.427 C 130.067 149.722, 127.686 149.194, 125.250 150.099 M 137 149.729 C 136.175 150.043, 135.169 150.795, 134.765 151.400 C 133.634 153.095, 133.846 169, 135 169 C 135.550 169, 136 167.410, 136 165.468 C 136 162.724, 136.502 161.746, 138.250 161.084 C 141.110 160.002, 141.112 160.004, 141.179 164.895 C 141.210 167.153, 141.633 169, 142.118 169 C 142.603 169, 143 164.966, 143 160.035 C 143 152.195, 142.757 150.940, 141.066 150.035 C 140.002 149.466, 138.989 149.036, 138.816 149.079 C 138.642 149.122, 137.825 149.415, 137 149.729 M 159.750 150.088 C 158.269 150.944, 158.018 152.513, 158.115 160.300 C 158.201 167.171, 158.415 168.548, 158.959 165.739 C 159.806 161.375, 159.859 161.301, 162.500 160.845 C 164.204 160.551, 164.545 161.129, 164.807 164.750 C 164.977 167.088, 165.539 169, 166.057 169 C 167.159 169, 167.320 153.032, 166.235 151.385 C 165.093 149.652, 161.684 148.971, 159.750 150.088 M 111.714 150.619 C 110.642 151.692, 110.854 169, 111.940 169 C 112.456 169, 113.019 167.361, 113.190 165.358 C 113.420 162.652, 114.078 161.504, 115.750 160.890 C 117.871 160.112, 118 160.321, 118 164.532 C 118 166.990, 118.467 169, 119.038 169 C 119.700 169, 119.971 165.658, 119.788 159.750 L 119.500 150.500 115.964 150.202 C 114.020 150.039, 112.107 150.226, 111.714 150.619 M 146 159.500 L 146 169.115 150.250 168.807 L 154.500 168.500 154.500 159.500 L 154.500 150.500 150.250 150.193 L 146 149.885 146 159.500 M 113.701 151.632 C 113.316 152.018, 113 154.044, 113 156.134 C 113 159.656, 113.165 159.874, 115.250 159.103 C 116.974 158.466, 117.500 157.482, 117.500 154.899 C 117.500 151.652, 115.447 149.886, 113.701 151.632 M 136.667 151.667 C 135.858 152.475, 135.767 160, 136.566 160 C 136.877 160, 138.002 159.534, 139.066 158.965 C 141.750 157.528, 141.833 151, 139.167 151 C 138.158 151, 137.033 151.300, 136.667 151.667 M 148 159.500 C 148 167.887, 148.066 168.130, 150.250 167.820 C 152.369 167.519, 152.500 167.035, 152.500 159.500 C 152.500 151.965, 152.369 151.481, 150.250 151.180 C 148.066 150.870, 148 151.113, 148 159.500 M 159.627 152.529 C 158.766 154.774, 158.838 158.787, 159.750 159.324 C 160.162 159.566, 161.541 159.372, 162.814 158.891 C 165.978 157.696, 165.635 151.662, 162.377 151.197 C 161.125 151.018, 159.997 151.565, 159.627 152.529" stroke="none" fill="#2c5e7b" fill-rule="evenodd"/></svg>